<svg xmlns="http://www.w3.org/2000/svg" xmlns:xlink="http://www.w3.org/1999/xlink" width="540" height="960" viewBox="0 0 540 960"><defs><clipPath id="a"><rect width="540" height="960" transform="translate(1064)" fill="#d5d5d5"/></clipPath><clipPath id="b"><rect width="1440" height="960" transform="translate(0)" fill="none"/></clipPath></defs><g transform="translate(-1064)" clip-path="url(#a)"><g transform="translate(460)"><rect width="1440" height="960" transform="translate(0)" fill="#e5e5e7"/><g clip-path="url(#b)"><rect width="1440" height="960" transform="translate(0)" fill="none"/><path d="M390.606,305.677l111.42-144.028,187.6,27.06,67.361,160.385L645.9,504.381,465.228,485.706Z" transform="translate(359.358 148.717)" fill="#e5e5e7"/><g transform="translate(353.555 34.458)"><path d="M596.017,266.571l65.006,45.257L616.26,357.773l-50.688-45.6Z" transform="translate(166.771 210.788)" fill="#c6d74b"/><path d="M336.426,98.272l85.111,54.355,23.443-27.177,35.589-2.692,15.058-88.251L386.248,17.947Z" transform="translate(-44.043 -17.947)" fill="#c6d74b"/><path d="M565.229,207l23.04-151.379L540.543,44.187,515.857,187.924Z" transform="translate(121.034 6.194)" fill="#c6d74b"/><path d="M528.974,196.6l-67.666-10.055,8.2-151.791,71.848,16.869Z" transform="translate(70.849 -2.484)" fill="#c6d74b"/><path d="M223.061,205.81l77.1.942,31.269,68,36.517,26.184,22.373,38.2-9.642,34.324-12.731,36.486-43.243,15.183h-43.3l-44.3-28.276-52.968-54.494,44.843-49.783Z" transform="translate(-184.143 154.887)" fill="#c6d74b"/><path d="M466.778,115.724l56.809,13.334-13.2,75.456-51.2-.812Z" transform="translate(68.901 72.008)" fill="#c6d74b"/><path d="M517.287,185.082,580.7,200.22l110.149-54.213L663.7,135.061l15.635-80.212s66.687-2.986,113.572,63.395,95.151,201.606,95.151,201.606L641.582,421.467,572.825,283.425,509,269.877Z" transform="translate(114.725 15.984)" fill="#c6d74b"/><path d="M243.714,397.971l210.24-92.66,50.194,125.861L311.6,439.114l-38.674-3.291-16.819-6.994-9.512-14.4Z" transform="translate(-129.338 246.428)" fill="#c6d74b"/><path d="M394.571,305.5l103.807-143.85,187.6,27.06L753.356,356.1,638.042,507l-176.462-21.3S401.978,363.1,394.571,305.5Z" transform="translate(9.451 114.259)" fill="#c6d74b"/></g><rect width="125.546" height="29.348" transform="translate(1213.68 579.825) rotate(35.261)" fill="#cacacc"/><g transform="translate(-73.63 -20.012)"><path d="M192.681,607.063c-1.071-37.8-17.75-87,6.24-120.749,26.089-36.7,72.589-53.921,114.906-60.628,15.281-2.421,30.146-2.314,45.517-3.708,11.881-1.075,22.337-6.371,34.182-8.458,28.51-5.019,56.348-8.049,85.814-7.647,42.879.586,102.943,30.305,114.244,74.523,6.24,24.422,10.113,49.678,10.113,75.037,0,13.926,2.154,29.987.021,43.8-1.3,8.413-8.173,20.183-15.519,23.47-18.672,8.352-52.161-1.761-72.23-2.156-17.981-.353-36.165-.344-54.136.278-49.676,1.72-97.4,9.75-147.118,4.57-23.927-2.494-46.57-9.926-70.021-14.653C228.634,607.5,212.451,609.4,192.681,607.063Z" transform="translate(244.79 393.384)" fill="#47bec6"/><path d="M654.081,559.938c-23.468-8.354-51.825-16.932-55.544-45.669-3.521-27.206,18.142-53.57,47.207-44.738,12.129,3.686,18.129,14.321,27.806,21.936,12.547,9.875,24.1,10.153,39.781,8.26,36.829-4.443,67.9-14.319,92.828,23.115,19.874,29.835-1.4,41.8-32.266,42.029-26.01.194-52.535,3.447-78.47,2.5C684.478,566.973,667.213,567.638,654.081,559.938Z" transform="translate(623.939 450.383)" fill="#47bec6"/><path d="M712.444-9.071a37.115,37.115,0,0,1-4.593,12.588,73.87,73.87,0,0,1-7.144,10.272,155.355,155.355,0,0,1-16.9,17.224c-5.944,5.29-12.1,10.253-18.313,15.07l-9.308,7.131-9.176,7.16a183.079,183.079,0,0,1-19.559,13.912,82.677,82.677,0,0,1-22.8,9.454,157.823,157.823,0,0,1-23.81,3.656c-7.809.741-15.4,1.44-22.748,2.855l3.777-3.711a3.254,3.254,0,0,0-.015.543,17.21,17.21,0,0,1-.065,2.166l0,.01-.238,2.35-2.392,1.417a222.73,222.73,0,0,0-20.44,13.609c-6.624,4.846-13.041,10.059-19.453,15.381-6.413,5.343-12.868,10.694-19.494,16.076-6.71,5.353-13.77,10.835-22.153,15.216a69.431,69.431,0,0,1-13.553,5.437c-4.752,1.3-9.2,2.031-13.223,2.782a64.332,64.332,0,0,0-10.529,2.636,24.741,24.741,0,0,0-3.949,1.878,26.611,26.611,0,0,0-3.469,2.6c-2.582,2.181-5.322,4.969-8.195,7.937l-4.5,4.6a49.027,49.027,0,0,0-3.372,3.723,6.245,6.245,0,0,0-1.19,2.018,13.089,13.089,0,0,0-.065,2.133c.035,1.4.2,3.375.378,5.472s.353,4.257.493,6.518a65.625,65.625,0,0,1,.115,7.644,30.337,30.337,0,0,1-2.183,10.249,25.49,25.49,0,0,1-7.332,9.744,35.974,35.974,0,0,1-8.229,5.021l-.968.445-.841.351-1.684.7-3.32,1.26-2.8,1.021c-.467.165-.5.221-.77.319-.052.029,0,.019,0,.019l.008-.012a1.352,1.352,0,0,0,.188-.084c.142-.069.2-.138.38-.252a2.6,2.6,0,0,0,.507-.409,4.7,4.7,0,0,0,.434-.413,2.592,2.592,0,0,0,.179-.234l.106-.1a.934.934,0,0,0,.157-.242.125.125,0,0,1,0,.065c0-.046-.094.248-.173.447-.369,1-.9,2.736-1.4,4.6-4.451,16.316-9.732,33.667-18.6,49.9-2.173,4.068-4.625,8.031-7.221,11.9a106.777,106.777,0,0,1-8.811,11.447,76.86,76.86,0,0,1-24.253,18.2,98.974,98.974,0,0,1-28,8.467,145.588,145.588,0,0,1-27.74,1.344c-2.25-.131-4.527-.188-6.753-.384l-3.35-.269-.837-.067-.419-.035-.753-.094-1.6-.24c-.6-.094-.806-.165-1.229-.252-3.034-.678-5.1-1.348-7.294-2.027l-6.221-2.033c-8.045-2.734-15.775-5.422-23.468-7.722a150.743,150.743,0,0,0-22.312-5.228,34.719,34.719,0,0,0-8.767-.311l-.7.086a1.857,1.857,0,0,1-.4.115l-.207.025a.088.088,0,0,1,0,.031c.015.01-.073-.017-.013-.054a3.36,3.36,0,0,0,1.375-1.78c.192-.161.081-.591.136-.374.01-.008-.054.156-.061.006a2.972,2.972,0,0,0-.1-.972c-.305-1.158-.382-.684.478.49.8,1.187,2.233,2.94,3.878,5.4a28.468,28.468,0,0,1,4.47,10.487,23.83,23.83,0,0,1,.265,6.887,18.152,18.152,0,0,1-.572,3.231,17.589,17.589,0,0,1-1,3.153,32.78,32.78,0,0,1-1.48,3.16q-.893,1.42-1.893,2.774a19.809,19.809,0,0,1-2.091,2.34,17.661,17.661,0,0,1-2.185,1.968c-.726.563-1.475,1.139-2.212,1.645l-2.145,1.286a21.249,21.249,0,0,1-2.1,1.089c-.682.317-1.39.666-2.06.941a58.267,58.267,0,0,1-7.659,2.511,124.619,124.619,0,0,1-13.538,2.565l-2.892.449c-.856.134-1.734.305-2.619.49a34.113,34.113,0,0,0-4.293,1.094c-.5.161-.732.282-.735.261.013-.017,0-.058.113-.131.06-.1.121-.146.157-.209a12.289,12.289,0,0,0-1.62,2.847c-.945,1.887-2.125,4.12-3.347,6.2-.668,1.091-1.127,1.943-2.179,3.471a38.214,38.214,0,0,1-2.819,3.556c-3.738,4.111-7.181,6.8-9.658,9.235a21.888,21.888,0,0,0-2.751,3.043,21.432,21.432,0,0,0-2.045,3.665c-1.359,2.959-2.58,6.954-4.679,11.683-.522,1.173-1.123,2.406-1.818,3.652a27.4,27.4,0,0,1-2.346,3.638c-.849,1.121-1.693,2.277-2.582,3.331l-2.774,2.878a66.176,66.176,0,0,1-11.825,8.98,108.78,108.78,0,0,1-12.321,6.432,158.526,158.526,0,0,1-25.323,8.582c-4.3,1.043-8.6,2.006-13.012,2.721-4.429.753-8.874,1.271-13.221,1.609a170.058,170.058,0,0,1-26.3.184c-8.79-.68-17.677-1.928-26.417-5.009a49.64,49.64,0,0,1-12.651-6.465,30.267,30.267,0,0,1-9.769-11.366l8.471-4.52c3.54,5.551,10.2,8.913,17.539,10.687a92.026,92.026,0,0,0,23.284,2.285,184.28,184.28,0,0,0,23.988-2.041c4-.6,7.864-1.334,11.662-2.262,3.834-.9,7.665-2.052,11.453-3.256A161.4,161.4,0,0,0,79.913,427.6a88.768,88.768,0,0,0,9.7-5.768,45.535,45.535,0,0,0,7.859-6.641l1.509-1.74,1.156-1.732a9.1,9.1,0,0,0,.977-1.7c.29-.607.578-1.281.862-2.045,1.167-3.011,2.2-7.139,4.115-11.916a44.353,44.353,0,0,1,3.8-7.469,43.4,43.4,0,0,1,5.318-6.6c3.423-3.542,6.467-6.238,8.258-8.461a17.064,17.064,0,0,0,2.1-3.347c.833-1.576,1.565-3.084,2.425-4.986l.716-1.54.895-1.8c.374-.691.787-1.427,1.252-2.177a24.3,24.3,0,0,1,1.818-2.5,22.124,22.124,0,0,1,4.992-4.46,27.67,27.67,0,0,1,4.886-2.546,54.918,54.918,0,0,1,7.78-2.446c1.16-.29,2.333-.566,3.54-.812l3.31-.651c4.157-.8,7.914-1.492,11.142-2.429a33.206,33.206,0,0,0,4.27-1.5,9.382,9.382,0,0,0,2.312-1.38c.282-.326.134-.161-.171.317,0,.169-.054.138-.065.156s.04.019-.031.14a2.071,2.071,0,0,0,.012.624c.069.405.073.109-.672-.918-.7-1.018-1.955-2.5-3.6-4.731a35.177,35.177,0,0,1-2.661-4.207,24.224,24.224,0,0,1-2.36-6.524,25.115,25.115,0,0,1-.407-4.1c.008-1.2.123-2.074.221-3.126a25.185,25.185,0,0,1,1.586-6.476,23.625,23.625,0,0,1,9.554-11.061,31.027,31.027,0,0,1,2.815-1.427l1.425-.63,1.3-.426c.868-.275,1.743-.532,2.621-.772.814-.179,1.594-.313,2.4-.457a59.186,59.186,0,0,1,16.335-.15A169.112,169.112,0,0,1,230,302.99c8.427,2.411,16.6,5.148,24.486,7.718l5.758,1.857c1.811.566,3.765,1.135,4.833,1.354a2.825,2.825,0,0,0,.313.069.033.033,0,0,0-.038-.008c.013,0-.063.008.025.017l.367.027.732.056,2.93.223c1.956.167,3.88.2,5.821.307,15.423.566,30.4-1.256,42.588-7.044a50.286,50.286,0,0,0,15.863-11.724,79.95,79.95,0,0,0,6.643-8.419,112.456,112.456,0,0,0,5.969-9.542q2.782-4.942,5.163-10.212c1.624-3.491,3.116-7.094,4.516-10.779,2.834-7.394,5.215-14.97,7.613-23.023a72.447,72.447,0,0,1,2.575-7.344c.338-.764.618-1.452,1.146-2.41l.733-1.329c.33-.52.68-1.039,1.039-1.548l.547-.755.7-.82a21.4,21.4,0,0,1,1.507-1.563c.555-.492,1.129-.966,1.718-1.415a19.984,19.984,0,0,1,1.7-1.112l.856-.5.718-.353c.467-.225.993-.474,1.421-.655.714-.278,1.64-.651,2.168-.816l3.155-1.044,2.6-.887,1.24-.47.622-.232.467-.2a12.559,12.559,0,0,0,2.6-1.332c.407-.315.209-.088.292-.106a4.645,4.645,0,0,0,.465-1.995,40.879,40.879,0,0,0,.131-4.944l-.182-6.058c-.073-2.095-.194-4.314-.136-7.112a36.17,36.17,0,0,1,.4-4.723,27.269,27.269,0,0,1,1.459-5.52,30.442,30.442,0,0,1,5.38-8.661,71.477,71.477,0,0,1,5.315-5.391l4.5-4.2c3.108-2.918,6.376-6.019,10.353-9.089a44.523,44.523,0,0,1,6.954-4.443,46.774,46.774,0,0,1,7.632-3.028,85,85,0,0,1,14.066-2.665c4.282-.511,8.158-.937,11.57-1.64a49.99,49.99,0,0,0,10.015-3.316,129.987,129.987,0,0,0,20.281-11.808l20.671-14.339c7.02-4.756,14.15-9.483,21.558-13.87a200.328,200.328,0,0,1,23.067-11.735l-2.63,3.767v0a9.788,9.788,0,0,0,.008-1.025,11.84,11.84,0,0,1,.227-2.636l.664-3.1,3.112-.6c15.984-3.11,31.743-2.723,46.049-6.4a72.952,72.952,0,0,0,20.252-8.4,174.582,174.582,0,0,0,18.526-13.208l9.27-7.231,9.262-7.1c6.111-4.739,12.1-9.573,17.81-14.652a146.1,146.1,0,0,0,15.848-16.13,64.427,64.427,0,0,0,6.209-8.9,27.8,27.8,0,0,0,3.458-9.237Z" transform="translate(38.349 10.423)" fill="#47bec6"/><path d="M241.353,630.037,255.06,485.891S72.942,441.664-14.848,377.54l8.484,266.333Z" transform="translate(59.97 367.349)" fill="#47bec6"/></g><g transform="translate(12.842 -24.823)"><g transform="translate(304.643 385.372)"><path d="M215,248.814H165.357V187.786H215v9.6H174.957v41.829H215Z" transform="translate(-165.357 -187.786)" fill="#cacacc"/></g><g transform="translate(323.021 450.789)"><rect width="29.622" height="9.6" fill="#cacacc"/></g><g transform="translate(320.141 462.72)"><rect width="30.191" height="9.6" fill="#cacacc"/></g><g transform="translate(320.141 476.111)"><rect width="42.377" height="9.6" fill="#cacacc"/></g><g transform="translate(323.021 489.875)"><rect width="35.382" height="9.6" fill="#cacacc"/></g><g transform="translate(400.802 443.61)"><path d="M233.551,258.682,215.8,248.857l-.365-20.281,17.382-10.458,17.747,9.825.365,20.281Zm-12.046-13.254,11.927,6.6L245.116,245l-.246-13.63-11.927-6.6L221.259,231.8Z" transform="translate(-215.44 -218.118)" fill="#e5e5e7"/></g><g transform="translate(416.026 469.202)"><path d="M241.48,272.009l-17.747-9.823-.365-20.281,17.38-10.458,17.748,9.825.363,20.281Zm-12.046-13.254,11.927,6.6,11.681-7.027L252.8,244.7l-11.927-6.6-11.683,7.027Z" transform="translate(-223.369 -231.447)" fill="#e5e5e7"/></g><g transform="translate(400.236 494.816)"><path d="M233.256,285.35l-17.747-9.825-.365-20.281,17.38-10.456,17.747,9.825.365,20.281ZM221.21,272.1l11.927,6.6,11.681-7.029-.246-13.632-11.927-6.6-11.683,7.027Z" transform="translate(-215.145 -244.788)" fill="#e5e5e7"/></g><g transform="translate(175.512 595.354)"><path d="M103.8,343.473l-3.244-4.759,17.7-12.062L98.1,300.684l4.549-3.532,23.925,30.81Z" transform="translate(-98.101 -297.151)" fill="#cacacc"/></g><g transform="translate(329.154 311.332)"><rect width="9.599" height="54.606" transform="matrix(0.565, -0.825, 0.825, 0.565, 0, 7.92)" fill="#cacacc"/></g><g transform="translate(393.68 385.373)"><rect width="9.6" height="43.027" transform="translate(0 9.598) rotate(-89.051)" fill="#cacacc"/></g><g transform="translate(409.91 349.649)"><path d="M222.536,211.192c-3.731-11.426-5.512-34.913,14.436-42.012l3.216,9.045c-16.22,5.773-8.605,29.747-8.527,29.988Z" transform="translate(-220.183 -169.18)" fill="#cacacc"/></g><g transform="translate(391.165 354.652)"><rect width="9.6" height="24.939" transform="matrix(0.541, -0.841, 0.841, 0.541, 0, 8.076)" fill="#cacacc"/></g><g transform="translate(502.941 148.479)"><path d="M354.87,176.76l-86.233-63.337,36-49.02,86.233,63.337Zm-73.423-65.3,71.461,52.489L378.064,129.7,306.6,77.214Z" transform="translate(-268.637 -64.404)" fill="#cacacc"/></g><g transform="translate(663.328 85.41)"><rect width="52.678" height="9.163" transform="translate(0 41.932) rotate(-52.75)" fill="#e5e5e7"/></g><g transform="translate(677.745 109.662)"><rect width="30.743" height="9.163" transform="matrix(0.61, -0.792, 0.792, 0.61, 0, 24.351)" fill="#e5e5e7"/></g><g transform="translate(537.25 300.338)"><rect width="9.162" height="35.181" transform="translate(0 7.554) rotate(-55.536)" fill="#cacacc"/></g><g transform="translate(468.983 217.24)"><rect width="9.162" height="35.181" transform="matrix(0.566, -0.824, 0.824, 0.566, 0, 7.554)" fill="#cacacc"/></g><g transform="translate(423.583 207.285)"><path d="M297.507,178.291l-7.448-5.34,13.116-18.29L227.3,102.587l5.184-7.554L316.071,152.4Z" transform="translate(-227.305 -95.032)" fill="#cacacc"/></g><g transform="translate(525.471 316.666)"><rect width="9.163" height="35.18" transform="translate(0 7.555) rotate(-55.535)" fill="#cacacc"/></g><g transform="translate(502.147 328.842)"><path d="M307.785,188.376l-25.263-17.339-6.791,9.708-7.508-5.252,12-17.15,32.75,22.478Z" transform="translate(-268.224 -158.343)" fill="#cacacc"/></g><g transform="translate(481.277 351.407)"><path d="M279.7,209.964l-7.17-5.7,7.837-9.854-23.013-16.928,5.43-7.382,30.678,22.568Z" transform="translate(-257.354 -170.096)" fill="#cacacc"/></g><g transform="translate(499.742 404.223)"><rect width="33.327" height="9.164" transform="translate(0 26.846) rotate(-53.661)" fill="#cacacc"/></g><g transform="translate(510.791 416.348)"><rect width="9.163" height="14.533" transform="matrix(0.61, -0.792, 0.792, 0.61, 0, 7.26)" fill="#cacacc"/></g><rect width="21.394" height="9.164" transform="translate(59.706 479.751)" fill="#cacacc"/><rect width="21.394" height="9.164" transform="translate(43.474 497.442)" fill="#cacacc"/><rect width="21.394" height="9.164" transform="translate(33.805 512.254)" fill="#cacacc"/><rect width="21.394" height="12.137" transform="translate(26.811 547.019)" fill="#cacacc"/><rect width="52.849" height="9.164" transform="translate(64.868 512.254)" fill="#cacacc"/><rect width="68.831" height="9.164" transform="translate(45.801 529.122)" fill="#cacacc"/><rect width="34.415" height="7.462" transform="translate(111.634 544.139)" fill="#cacacc"/><rect width="55.954" height="7.462" transform="translate(70.403 627.921)" fill="#cacacc"/><rect width="38.263" height="7.462" transform="translate(76.986 645.407)" fill="#cacacc"/><rect width="28.389" height="7.462" transform="translate(85.421 663.606)" fill="#cacacc"/><rect width="57.051" height="7.462" transform="translate(92.882 613.166) rotate(90)" fill="#cacacc"/><rect width="68.831" height="9.164" transform="translate(45.801 559.156)" fill="#cacacc"/><rect width="19.749" height="9.164" transform="translate(70.342 544.139)" fill="#cacacc"/><rect width="5.349" height="28.538" transform="translate(77.672 535.2)" fill="#cacacc"/><rect width="18.748" height="12.343" transform="translate(70.403 613.166)" fill="#cacacc"/><rect width="34.096" height="28.379" transform="translate(288.925 500.743)" fill="#cacacc"/><rect width="26.57" height="10.149" transform="translate(173.261 494.675)" fill="#cacacc"/><rect width="27.154" height="7.132" transform="translate(284.038 458.743)" fill="#cacacc"/><rect width="41.177" height="8.811" transform="translate(301.181 398.915) rotate(90)" fill="#cacacc"/><rect width="27.154" height="7.132" transform="translate(284.038 470.553)" fill="#cacacc"/><rect width="27.154" height="7.132" transform="translate(284.038 482.363)" fill="#cacacc"/><ellipse cx="30.294" cy="38.985" rx="30.294" ry="38.985" transform="translate(328.009 290.22) rotate(-60)" fill="#cacacc"/><rect width="16.237" height="21.909" transform="translate(552.905 433.783) rotate(37.706)" fill="#cacacc"/><rect width="16.237" height="31.646" transform="matrix(0.791, 0.612, -0.612, 0.791, 631.683, 403.076)" fill="#cacacc"/><rect width="16.237" height="49.149" transform="translate(310.734 198.976) rotate(37.706)" fill="#cacacc"/><rect width="16.237" height="16.237" transform="translate(94.224 90.629) rotate(37.706)" fill="#cacacc"/><rect width="16.237" height="16.237" transform="translate(125.442 97.777) rotate(37.706)" fill="#cacacc"/><rect width="16.237" height="16.237" transform="translate(77.84 166.62) rotate(37.706)" fill="#cacacc"/><rect width="16.237" height="16.237" transform="translate(45.337 155.757) rotate(37.706)" fill="#cacacc"/><rect width="16.237" height="16.237" transform="matrix(0.791, 0.612, -0.612, 0.791, 300.67, 112.812)" fill="#cacacc"/><rect width="12.388" height="8.436" transform="matrix(0.791, 0.612, -0.612, 0.791, 401.881, 68.687)" fill="#cacacc"/><rect width="18.608" height="8.436" transform="translate(430.449 61.561) rotate(37.706)" fill="#cacacc"/><rect width="18.608" height="8.436" transform="matrix(0.791, 0.612, -0.612, 0.791, 419.032, 27.653)" fill="#cacacc"/><rect width="22.01" height="8.436" transform="translate(416.622 50.845)" fill="#cacacc"/><rect width="17.671" height="17.671" transform="matrix(0.791, 0.612, -0.612, 0.791, 382.441, 89.623)" fill="#cacacc"/><rect width="17.671" height="23.658" transform="matrix(0.791, 0.612, -0.612, 0.791, 403.405, 185.892)" fill="#cacacc"/><rect width="17.671" height="23.658" transform="matrix(0.791, 0.612, -0.612, 0.791, 471.82, 291.478)" fill="#cacacc"/><rect width="23.704" height="16.237" transform="translate(278.453 90.202) rotate(37.706)" fill="#cacacc"/><rect width="23.704" height="16.237" transform="translate(237.721 67.85) rotate(37.706)" fill="#cacacc"/><rect width="58.762" height="14.413" transform="matrix(0.791, 0.612, -0.612, 0.791, 266.438, 24.514)" fill="#cacacc"/><rect width="56.475" height="10.304" transform="translate(339.509 37.935) rotate(37.706)" fill="#cacacc"/><rect width="58.762" height="14.413" transform="translate(325.799 8.815) rotate(127.706)" fill="#cacacc"/><rect width="89.833" height="14.413" transform="translate(406.468 11.14) rotate(127.706)" fill="#cacacc"/><rect width="23.704" height="16.237" transform="translate(210.067 110.851) rotate(127.706)" fill="#cacacc"/><rect width="28.903" height="40.454" transform="matrix(-0.612, 0.791, -0.791, -0.612, 111.857, 135.892)" fill="#cacacc"/><rect width="32.795" height="16.237" transform="translate(168.725 166.405) rotate(127.706)" fill="#cacacc"/><rect width="32.795" height="16.237" transform="matrix(-0.612, 0.791, -0.791, -0.612, 185.176, 47.056)" fill="#cacacc"/><rect width="41.56" height="16.237" transform="translate(193.832 248.657) rotate(180)" fill="#cacacc"/><rect width="33.467" height="16.237" transform="translate(223.569 131.345) rotate(37.706)" fill="#cacacc"/><rect width="33.467" height="11.262" transform="translate(210.596 148.127) rotate(37.706)" fill="#cacacc"/><rect width="33.467" height="11.262" transform="matrix(0.791, 0.612, -0.612, 0.791, 193.913, 170.838)" fill="#cacacc"/><rect width="9.242" height="49.149" transform="translate(293.325 194.928) rotate(37.707)" fill="#cacacc"/><rect width="9.242" height="49.149" transform="translate(90.672 305.469) rotate(37.706)" fill="#cacacc"/><rect width="9.242" height="49.149" transform="translate(34.35 359.587) rotate(37.707)" fill="#cacacc"/><rect width="9.242" height="49.149" transform="translate(44.538 377.304) rotate(127.706)" fill="#cacacc"/><rect width="9.242" height="13.007" transform="translate(277.279 193.844) rotate(37.706)" fill="#cacacc"/><rect width="9.242" height="13.007" transform="translate(262.436 213.045) rotate(37.707)" fill="#cacacc"/><rect width="8.119" height="31.646" transform="matrix(0.791, 0.612, -0.612, 0.791, 619.844, 396.469)" fill="#cacacc"/><rect width="8.119" height="14.511" transform="translate(609.146 399.802) rotate(37.705)" fill="#cacacc"/><rect width="16.237" height="16.237" transform="matrix(0.791, 0.612, -0.612, 0.791, 528.454, 433.333)" fill="#cacacc"/><rect width="12.066" height="9.297" transform="translate(498.683 441.518) rotate(37.706)" fill="#cacacc"/><rect width="9.297" height="9.296" transform="matrix(0.791, 0.612, -0.612, 0.791, 505.472, 456.524)" fill="#cacacc"/><rect width="11.048" height="9.296" transform="matrix(0.791, 0.612, -0.612, 0.791, 516.952, 453.885)" fill="#cacacc"/><circle cx="19.337" cy="19.337" r="19.337" transform="translate(244.849 267.566)" fill="#cacacc"/><g transform="translate(408.637 225.007)"><rect width="9.163" height="38.817" transform="matrix(0.53, -0.848, 0.848, 0.53, 0, 7.77)" fill="#cacacc"/></g></g><g transform="translate(-52.872 -80.482)"><g transform="translate(905.352 482.036)"><path d="M524.365,369.874a80.365,80.365,0,1,1,80.365-80.365A80.457,80.457,0,0,1,524.365,369.874Zm0-135.771a55.405,55.405,0,1,0,55.406,55.405A55.468,55.468,0,0,0,524.365,234.1Z" transform="translate(-444 -209.143)" fill="#fff"/></g><g transform="translate(877.479 23.581)"><rect width="1064.806" height="24.96" transform="translate(0 1054.087) rotate(-81.864)" fill="#fff"/></g><g transform="translate(918.543 23.581)"><rect width="1064.806" height="24.96" transform="translate(0 1054.087) rotate(-81.864)" fill="#fff"/></g><g transform="translate(792.12 379.682)"><path d="M636.828,521.272a46.221,46.221,0,0,1-5.509-.328L484.38,503.36a46.807,46.807,0,0,1-37.365-27.976L388.775,339.34a46.81,46.81,0,0,1,5.543-46.347l88.7-118.46a46.791,46.791,0,0,1,42.912-18.371l146.936,17.583a46.8,46.8,0,0,1,37.365,27.974L768.47,337.766a46.8,46.8,0,0,1-5.545,46.347l-88.7,118.462A46.823,46.823,0,0,1,636.828,521.272ZM520.4,176.953a25.649,25.649,0,0,0-20.483,10.239l-88.7,118.46a25.633,25.633,0,0,0-3.036,25.377L466.431,467.07a25.621,25.621,0,0,0,20.458,15.32l146.938,17.583a25.648,25.648,0,0,0,23.5-10.057l88.7-118.462a25.628,25.628,0,0,0,3.036-25.377L690.816,210.034a25.629,25.629,0,0,0-20.459-15.318L523.419,177.133A25.243,25.243,0,0,0,520.4,176.953Z" transform="translate(-385.025 -155.833)" fill="#fff"/></g><g transform="translate(511.149 328.135)"><path d="M344.1,374.262a100.167,100.167,0,0,1-65.265-24.1l-4.452-3.784a101.242,101.242,0,0,1-17.03-135.729l52.316-73.757L326.9,149.111l-52.316,73.757a79.68,79.68,0,0,0,13.478,107.414l4.453,3.782A80.119,80.119,0,0,0,408.2,321.447L554.292,128.986l91.444,56.31-11.073,17.983-75.131-46.262-134.508,177.2a100.3,100.3,0,0,1-69.661,39.431A103.454,103.454,0,0,1,344.1,374.262Z" transform="translate(-238.686 -128.986)" fill="#fff"/></g><g transform="translate(696.618 353.06)"><rect width="21.12" height="182.639" transform="translate(0 17.255) rotate(-54.784)" fill="#fff"/></g><g transform="translate(734.783 446.542)"><rect width="21.12" height="93.504" transform="matrix(0.577, -0.817, 0.817, 0.577, 0, 17.254)" fill="#fff"/></g><g transform="translate(581.488 290.42)"><path d="M275.321,284.652v-21.12a83.533,83.533,0,0,0,66.559-33.316l90.486-120.874,84.764,59.019L505.06,185.694l-68.016-47.359L358.785,242.873A104.742,104.742,0,0,1,275.321,284.652Z" transform="translate(-275.321 -109.343)" fill="#fff"/></g><g transform="translate(625.082 418.415)"><path d="M309.068,256.639c-22.3-31.5-5.852-66.518,5.96-80.632l16.222,13.523c-.962,1.169-23.347,28.908-4.942,54.91Z" transform="translate(-298.026 -176.007)" fill="#fff"/></g><g transform="translate(595.512 449.548)"><path d="M306.272,230.428a22.283,22.283,0,0,1-14.047-4.451c-12.81-9.913-9.262-31.344-8.815-33.756l13.215,2.45-6.607-1.225,6.609,1.21c-.728,4.044-1.59,16.523,3.834,20.7,3.89,3,11.948,1.882,22.691-3.135L328.84,224.4C320.236,228.418,312.694,230.428,306.272,230.428Z" transform="translate(-282.625 -192.222)" fill="#fff"/></g><g transform="translate(265.545 534.877)"><path d="M131.685,775.27l-20.918-2.915L130.61,629.849a213.933,213.933,0,0,1,41.424-99.663L394.95,236.664l16.819,12.772L188.855,542.958a192.787,192.787,0,0,0-37.329,89.806Z" transform="translate(-110.767 -236.664)" fill="#fff"/></g><g transform="translate(672.169 531.222)"><rect width="21.12" height="285.254" transform="translate(0 8.235) rotate(-22.948)" fill="#fff"/></g><g transform="translate(481.182 608.617)"><path d="M223.078,447.747l1.568-97.678,21.118.338-1.043,64.952L568.652,275.07l8.392,19.38Z" transform="translate(-223.078 -275.07)" fill="#fff"/></g><g transform="translate(602.907 549.384)"><rect width="217.178" height="21.119" transform="translate(0 88.406) rotate(-24.021)" fill="#fff"/></g><g transform="translate(818.906 135.054)"><rect width="207.498" height="21.122" transform="matrix(0.131, -0.991, 0.991, 0.131, 0, 205.714)" fill="#fff"/></g><g transform="translate(919.311 146.435)"><rect width="243.744" height="24.961" transform="matrix(0.056, -0.998, 0.998, 0.056, 0, 243.363)" fill="#fff"/></g><g transform="translate(1066.363)"><rect width="410.967" height="24.96" transform="translate(0 406.179) rotate(-81.246)" fill="#fff"/></g><g transform="translate(1165.99 30.502)"><rect width="245.967" height="24.958" transform="translate(0 241.919) rotate(-79.591)" fill="#fff"/></g><g transform="translate(1260.946 0.171)"><rect width="205.065" height="24.96" transform="translate(0 203.091) rotate(-82.042)" fill="#fff"/></g><g transform="translate(1308.697 46.164)"><rect width="282.684" height="24.96" transform="translate(0 120.955) rotate(-25.333)" fill="#fff"/></g><g transform="translate(1377.845 137.18)"><rect width="24.961" height="224.693" transform="matrix(0.887, -0.463, 0.463, 0.887, 0, 11.549)" fill="#fff"/></g><g transform="translate(1446.466 185.719)"><rect width="151.619" height="24.96" transform="translate(0 66.857) rotate(-26.165)" fill="#fff"/></g><g transform="translate(1403.941 263.3)"><rect width="182.848" height="24.96" transform="translate(0 75.297) rotate(-24.318)" fill="#fff"/></g><g transform="translate(1423.789 293.498)"><rect width="186.164" height="24.96" transform="translate(0 75.125) rotate(-23.8)" fill="#fff"/></g><g transform="translate(735.579 212.413)"><path d="M366.163,165.358l-10.586-8.282L424.7,68.714H465.61v13.44H431.254Z" transform="translate(-355.577 -68.714)" fill="#fff"/></g><g transform="translate(693.354 185.773)"><rect width="21.119" height="100.912" transform="translate(0 17.347) rotate(-55.225)" fill="#fff"/></g><g transform="translate(658.179 106.071)"><rect width="152.19" height="21.119" transform="matrix(0.596, -0.803, 0.803, 0.596, 0, 122.198)" fill="#fff"/></g><g transform="translate(1043.089 578.292)"><rect width="21.12" height="601.163" transform="translate(0 17.551) rotate(-56.206)" fill="#fff"/></g><g transform="translate(1101.854 578.262)"><path d="M562.578,483.3l-16.234-13.508L671.287,319.621l-64.565-42.75,11.659-17.61,84.212,55.759Z" transform="translate(-546.345 -259.261)" fill="#fff"/></g><g transform="translate(850.571 201.253)"><path d="M815.285,504.934l-15.878-13.928,44.849-51.133,57.589-23.4L787.566,162.03a34.369,34.369,0,0,0-24.96-19.682l-98.734-18.66L615.152,95.15l-37.638-3.779-71.858,4.1L415.468,83.849l2.7-20.947,88.243,11.374,71.56-4.084,43.878,4.4,49.542,29.017L766.528,121.6a55.515,55.515,0,0,1,40.307,31.78L930.082,427.79l-73.244,29.768Z" transform="translate(-415.468 -62.902)" fill="#fff"/></g><g transform="translate(835.122 275.261)"><rect width="21.12" height="164.857" transform="translate(0 20.842) rotate(-80.701)" fill="#fff"/></g><g transform="translate(1043.318 302.573)"><path d="M565.229,123.756l-49.372-8.084v21.4l49.372,8.084Z" transform="translate(-515.857 -115.672)" fill="#fff"/></g><g transform="translate(1127.899 449.515)"><rect width="67.056" height="21.119" transform="translate(0 28.517) rotate(-25.168)" fill="#fff"/></g><g transform="translate(1158.52 437.789)"><rect width="278.095" height="21.12" transform="translate(0 111.004) rotate(-23.526)" fill="#fff"/></g><g transform="translate(1252.227 302.672)"><rect width="92.666" height="21.121" transform="translate(0 37.644) rotate(-23.969)" fill="#fff"/></g><g transform="translate(1223.017 236.796)"><rect width="89.927" height="21.12" transform="translate(0 39.391) rotate(-25.978)" fill="#fff"/></g><g transform="translate(644.743 43.453)"><path d="M1168.057,589.389,973.383,197.444a113.329,113.329,0,0,0-85.861-61.859L683.459,107.062,482.738,78.248a276.556,276.556,0,0,1-103.7-36.9L308.266-1.182l10.879-18.1,70.771,42.532a255.5,255.5,0,0,0,95.821,34.1L686.422,86.149l204.025,28.518a134.44,134.44,0,0,1,101.85,73.38L1186.973,580Z" transform="translate(-308.266 19.286)" fill="#fff"/></g><g transform="translate(672.627 11.669)"><path d="M1182.582,572.835,987.9,180.89a113.323,113.323,0,0,0-85.859-61.86L697.98,90.508,497.261,61.694a276.557,276.557,0,0,1-103.7-36.9L322.789-17.736l10.879-18.1L404.439,6.692a255.524,255.524,0,0,0,95.823,34.1l200.68,28.808L904.971,98.113a134.435,134.435,0,0,1,101.848,73.381L1201.5,563.44Z" transform="translate(-322.789 35.84)" fill="#fff"/></g><g transform="translate(1319.521 614.905)"><path d="M675.9,504.954l-16.189-13.564L692.546,452.2,833.115,278.346l16.425,13.279-140.687,174Z" transform="translate(-659.713 -278.346)" fill="#fff"/></g><g transform="translate(459.474 58.622)"><path d="M253.127,185.869l-10.984-7.746,8.1-11.486-38.472-22.716,55.375-84.227-4.865-70.15,13.408-.93,5.178,74.674-50.118,76.23,38.875,22.954Z" transform="translate(-211.772 11.385)" fill="#fff"/></g><g transform="translate(164.105 32.735)"><path d="M223.3,325.793a38.635,38.635,0,0,1-12.57-2.1l-21.229-7.3a102.7,102.7,0,0,0-33.456-5.591h-43.8a41.082,41.082,0,0,1-39.208-28.548l-9.308-28.861A119.475,119.475,0,0,1,83.255,143.1L214.318-24.868,224.913-16.6,93.85,151.371a106.054,106.054,0,0,0-17.336,97.9l9.308,28.861a27.682,27.682,0,0,0,26.417,19.235h43.8a116.109,116.109,0,0,1,37.824,6.321l21.233,7.3a25.245,25.245,0,0,0,32.859-18.413l1.836-8.275a167.661,167.661,0,0,1,35.3-71.426l31.392-37.277-.8-2.221a26.493,26.493,0,0,1,37.828-32.118l12.555,7-6.545,11.739-12.555-7a13.054,13.054,0,0,0-18.637,15.827l3.425,9.506-36.38,43.2a154.154,154.154,0,0,0-32.46,65.679l-1.836,8.275A38.677,38.677,0,0,1,223.3,325.793Z" transform="translate(-57.934 24.868)" fill="#fff"/></g><g transform="translate(170.432 149.412)"><path d="M63.2,182.687l-1.974-21.03a76.013,76.013,0,0,0,53.827-30.3L185.985,35.9l56.834,36.123L231.491,89.847l-40.262-25.59-59.22,79.7A97.164,97.164,0,0,1,63.2,182.687Z" transform="translate(-61.229 -35.901)" fill="#fff"/></g><g transform="translate(0 52.387)"><rect width="273.617" height="21.121" transform="matrix(0.635, -0.773, 0.773, 0.635, 0, 211.472)" fill="#fff"/></g><g transform="translate(25.088 233.667)"><path d="M117.043,167.371a121.555,121.555,0,0,1-75.928-26.632L-14.471,96.277-1.279,79.784l55.588,44.461a100.423,100.423,0,0,0,80.55,20.413l3.744,20.786A121.735,121.735,0,0,1,117.043,167.371Z" transform="translate(14.471 -79.784)" fill="#fff"/></g><g transform="translate(344.898 359.773)"><path d="M340.557,491.379A86.427,86.427,0,0,1,290.619,475.6l-88.769-62.54,4.877-22.988,36.088-42.7-5.169-126.931L152.1,163l11.773-17.535,94.441,63.408,5.94,145.847-37.968,44.93-.883,4.166,77.382,54.518a65.972,65.972,0,0,0,78.084-106.326l-13.187-10.09,12.835-16.773,13.187,10.09a87,87,0,0,1-53.146,156.144Z" transform="translate(-152.097 -145.464)" fill="#fff"/></g><g transform="translate(119.886 437.513)"><path d="M321.444,381.746H237.688L127.472,321.3l-39.583-8.16V262.854A50.1,50.1,0,0,0,61.057,218.41L34.9,204.645l9.836-18.691,26.154,13.764a71.166,71.166,0,0,1,38.116,63.135v33.074l25.836,5.328L243.1,360.626h78.346Z" transform="translate(-34.903 -185.954)" fill="#fff"/></g><g transform="translate(24.364 347.582)"><path d="M30.3,303.891q-3.021,0-5.956-.269c-20.575-1.884-35.958-13.073-39.189-28.508l20.673-4.328c1.248,5.962,9.654,10.815,20.442,11.8,14.9,1.359,32.943-4.616,39.679-21.051,15.838-38.642,80.93-119.023,83.693-122.425l16.395,13.311c-.657.81-65.885,81.35-80.544,117.124C75.6,293.685,51.626,303.891,30.3,303.891Z" transform="translate(14.848 -139.115)" fill="#fff"/></g><g transform="translate(201.341 698.571)"><path d="M90.179,463.09c-25.035-36.858-8.719-65.443,8.555-95.7l2.11-3.7c13.866-24.384,50.352-26.362,85.638-28.274,18.463-1,37.555-2.033,48.451-6.589,36.524-15.275,70.02-.518,71.428.117l-8.648,19.267c-.267-.115-26.79-11.543-54.632.1-14.26,5.964-34.27,7.046-55.457,8.2-28.243,1.528-60.255,3.264-68.421,17.622l-2.125,3.731c-18.276,32.016-26.312,48.509-9.427,73.371Z" transform="translate(-77.327 -321.922)" fill="#fff"/></g><g transform="translate(224.236 742.373)"><path d="M138.8,428.856l-3.012-12.046a59.5,59.5,0,0,0-17.063-29.034L89.252,360.145l14.446-15.41,29.47,27.633a80.558,80.558,0,0,1,23.107,39.32l3.012,12.046Z" transform="translate(-89.252 -344.735)" fill="#fff"/></g><g transform="translate(192.935 596.206)"><path d="M107.49,417.978,72.949,341.24l58.219-38.119,30.759-34.515,15.767,14.051-32.619,36.6L99.614,349.025l27.134,60.283Z" transform="translate(-72.949 -268.606)" fill="#fff"/></g><g transform="translate(64.118 637.248)"><path d="M44.245,375.731H5.857v-21.12H34.121l42.472-52.863a31.63,31.63,0,0,1,41.013-7.177l35.9,21.88-10.994,18.033L106.615,312.6a10.453,10.453,0,0,0-13.557,2.371Z" transform="translate(-5.857 -289.982)" fill="#fff"/></g><g transform="translate(16.064 756.195)"><path d="M301.287,491.249C172.95,491.249-11.1,374.89-19.171,369.742l11.353-17.808c2,1.273,201.143,127.2,322.545,117.688C362.479,465.894,391.44,451.58,424.971,435c53.34-26.364,113.839-56.225,265.261-54.278,244.182,3.168,510.872,73.7,513.537,74.412l-5.451,20.406c-2.642-.707-266.867-70.568-508.36-73.7-146.421-1.918-204.424,26.786-255.629,52.1-34.015,16.813-66.144,32.694-117.957,36.741C311.447,491.063,306.4,491.249,301.287,491.249Z" transform="translate(19.171 -351.934)" fill="#fff"/></g><g transform="translate(1338.124 902.577)"><rect width="21.118" height="218.889" transform="matrix(0.524, -0.851, 0.851, 0.524, 0, 17.981)" fill="#fff"/></g><g transform="translate(16.064 792.539)"><path d="M1489.267,650.016l-137.593-84.743a627.986,627.986,0,0,0-100.458-50.056l-40.666-15.892a223.745,223.745,0,0,0-27.3-8.7c-63.051-15.7-284.957-67.146-493.29-69.852-146.421-1.906-204.424,26.786-255.629,52.1-34.015,16.813-66.142,32.7-117.957,36.743-4.925.384-9.967.57-15.082.57C172.952,510.19-11.1,393.818-19.171,388.673l11.353-17.81c2,1.273,201.143,127.2,322.545,117.69,47.752-3.729,76.714-18.044,110.244-34.62,53.34-26.365,113.839-56.187,265.261-54.282,210.607,2.736,434.511,54.637,498.119,70.479a245.084,245.084,0,0,1,29.885,9.519l40.667,15.894a649.061,649.061,0,0,1,103.847,51.748l137.591,84.743Z" transform="translate(19.171 -370.863)" fill="#fff"/></g><g transform="translate(1280.847 818.292)"><rect width="55.574" height="11.52" transform="translate(0 30.446) rotate(-33.219)" fill="#fff"/></g><g transform="translate(1329.679 824.767)"><rect width="54.918" height="11.52" transform="translate(0 54.863) rotate(-87.426)" fill="#fff"/></g><g transform="translate(1229.634 841.323)"><path d="M691.444,493.467a86.652,86.652,0,0,1-35.518-8.156c-32.793-14.915-50.4-44.364-40.086-67.043s44.081-28.756,76.877-13.841,50.4,44.362,40.086,67.041h0C726.3,485.766,710.469,493.467,691.444,493.467Zm-34.247-76c-11.073,0-19.4,3.734-22.061,9.579-4.548,10,6.474,28.464,29.568,38.966s44.25,6.678,48.8-3.323-6.474-28.464-29.568-38.966A65.549,65.549,0,0,0,657.2,417.467Z" transform="translate(-612.897 -396.271)" fill="#fff"/></g><g transform="translate(354.059 757.293)"><path d="M175.8,483.02l-18.935-9.358c.937-1.9,23.368-46.744,57.907-65.818,30.6-16.894,72.507-54.956,72.925-55.338l14.225,15.612c-1.789,1.628-44.191,40.132-76.942,58.214C196.3,442.176,176,482.615,175.8,483.02Z" transform="translate(-156.868 -352.506)" fill="#fff"/></g><g transform="translate(448.766 753.766)"><rect width="105.375" height="21.119" transform="matrix(0.463, -0.886, 0.886, 0.463, 0, 93.415)" fill="#fff"/></g><g transform="translate(517.604 751.932)"><path d="M342.063,403.3l-66.474-3.606a35.465,35.465,0,0,1-33.54-35.409V349.714h9.6v14.569a25.866,25.866,0,0,0,24.461,25.824l66.474,3.606Z" transform="translate(-242.048 -349.714)" fill="#fff"/></g><g transform="translate(820.396 417.908)"><path d="M427.268,275.322a54.872,54.872,0,0,1-27.516-7.428l4.8-8.312a45.013,45.013,0,0,0,57.784-10.714l4-4.946a45.4,45.4,0,0,0-2.218-59.43l-2.043-2.173,6.993-6.576,2.045,2.172a55.031,55.031,0,0,1,2.684,72.046l-4,4.946A54.6,54.6,0,0,1,427.268,275.322Z" transform="translate(-399.752 -175.743)" fill="#fff"/></g><g transform="translate(876.197 658.304)"><path d="M440,452.721c-7.35-6.065-11.524-15.919-11.169-26.354s5.19-19.985,12.935-25.538c6.81-4.881,15.819-6.639,24.7-4.948l-20.156-40.122c-5.411-10.769-10.395-22.284-6.86-34.234,4.122-13.924,19.834-22.915,35.053-20.041,12.885,2.437,24.367,12.877,29.249,26.6,3.919,11.011,3.953,24.121.1,37.9l-12.945-3.619c2.164-7.74,3.953-19.188.182-29.779-3.314-9.31-10.8-16.335-19.083-17.9-8.35-1.586-17.526,3.4-19.668,10.646s1.6,15.673,5.981,24.386L489.1,410.99a28.315,28.315,0,0,1,2.383,4.819L479.2,421.216l-1.832-3.648a20.3,20.3,0,0,0-11.136-7.926c-6.035-1.816-12.248-1.031-16.627,2.11s-7.119,8.773-7.336,15.072,2.139,12.1,6.3,15.533Z" transform="translate(-428.815 -300.949)" fill="#fff"/></g><g transform="translate(960.445 723.238)"><path d="M472.694,444.99l15.2-52.007a28.556,28.556,0,0,1,8.381-13.087,124.965,124.965,0,0,1,66.344-45.128l3.548,12.964a110.968,110.968,0,0,0-44.746,24.542,32.082,32.082,0,0,1,25.367,24.472c2.74,12.735-3,26.859-13.958,34.349-10.518,7.189-25.292,7.9-36.774,1.765l6.334-11.852A22.585,22.585,0,0,0,525.248,420c6.465-4.418,10-13.008,8.4-20.423-1.613-7.5-8.419-13.609-15.836-14.225a16.833,16.833,0,0,0-11.547,3.633,108.224,108.224,0,0,0-6.127,9.291Z" transform="translate(-472.694 -334.769)" fill="#fff"/></g><g transform="translate(365.446 893.799)"><path d="M183.869,609.966,162.8,608.5c.169-2.438,4.207-60.094,9.17-89.873,5.188-31.137,45.719-88.579,50.323-95.027l17.188,12.275C227.756,452.3,196.518,499.8,192.8,522.1,188,550.882,183.907,609.378,183.869,609.966Z" transform="translate(-162.799 -423.603)" fill="#fff"/></g><g transform="translate(286.419 952.173)"><path d="M217.18,490.336c-43.091-33.853-87.252-11.987-87.694-11.76l-7.847-15.4c2.2-1.123,54.543-27.026,106.216,13.569Z" transform="translate(-121.639 -454.006)" fill="#fff"/></g><g transform="translate(277.99 985.029)"><rect width="21.12" height="116.487" transform="translate(0 9.31) rotate(-26.157)" fill="#fff"/></g><g transform="translate(371.183 856.208)"><path d="M197.438,493.88q-1.316,0-2.509-.085c-30.346-2.17-29.149-24.641-29.132-24.868l9.577.66-4.788-.33,4.792.269c-.058,1.352.031,13.248,20.235,14.694,25.307,1.8,112.017-32.033,122.82-80.2l9.366,2.1c-7.179,32.01-41.278,54.636-60.964,65.272C242.51,484.543,213.459,493.88,197.438,493.88Z" transform="translate(-165.787 -404.024)" fill="#fff"/></g><g transform="translate(414.294 731.05)"><path d="M203.677,387.173l-7.4-6.116,14.953-18.09-22.99-16.3,5.552-7.832,31.424,22.277Z" transform="translate(-188.241 -338.838)" fill="#fff"/></g><rect width="79.817" height="15.853" transform="translate(442.632 468.651)" fill="#fff"/><g transform="translate(940.425 867.909)"><path d="M477.151,491.906l-14.884-8.782c1.924-3.26,48.271-79.734,151.69-72.526l-1.2,17.24C519.942,421.349,477.565,491.2,477.151,491.906Z" transform="translate(-462.267 -410.118)" fill="#fff"/></g><g transform="translate(803.901 829.808)"><path d="M489.014,495.11c-22.852-74.671-97.106-87.66-97.853-87.784l2.794-17.052c3.485.57,85.624,14.961,111.581,99.777Z" transform="translate(-391.161 -390.274)" fill="#fff"/></g><g transform="translate(794.337 863.34)"><path d="M441.171,602.255c-.06-20.246.048-38.5,1.943-56.83.522-5.05,1.281-9.861,2.012-14.517,1.434-9.128,2.79-17.748,2.246-27.1-.472-8.129-1.843-16.9-3.172-25.379q-.236-1.529-.474-3.045c-12.259.09-23.616-.276-30.492-3.268-12.115-5.274-25.87-20.379-26.966-35.581-.852-11.8,4.47-21.579,14.235-26.147,11.194-5.234,25.6-2.525,35.044,6.589,13.523,13.052,21.431,28.915,24.173,48.5.472,3.364,1.012,6.8,1.555,10.282,1.39,8.888,2.826,18.077,3.347,27.043.653,11.211-.912,21.164-2.427,30.791-.7,4.435-1.417,9.018-1.893,13.615-1.809,17.487-1.909,35.255-1.851,55Zm-28.4-177.22a11.785,11.785,0,0,0-4.95,1c-3.247,1.519-4.662,4.545-4.322,9.249.518,7.16,8.755,17.553,16.629,20.982,3.55,1.544,13.139,1.828,20.5,1.841a61.046,61.046,0,0,0-17.08-28.706A15.638,15.638,0,0,0,412.774,425.035Z" transform="translate(-386.18 -407.739)" fill="#fff"/></g><g transform="translate(988.477 951.044)"><path d="M598.606,563.238l-15.346-.72,3.318-70.821a15.618,15.618,0,0,0-12.885-16.084l-37.609-6.586a15.491,15.491,0,0,0-17.971,12.259l-15.765,77.77L487.294,556l15.765-77.77A30.781,30.781,0,0,1,538.731,453.9l37.611,6.586a31.011,31.011,0,0,1,25.578,31.935Z" transform="translate(-487.294 -453.418)" fill="#fff"/></g><g transform="translate(1035.487 967.883)"><rect width="92.459" height="15.359" transform="matrix(0.14, -0.99, 0.99, 0.14, 0, 91.544)" fill="#fff"/></g></g></g></g></g></svg>